<svg width="31" height="31" viewBox="0 0 31 31" fill="none" xmlns="http://www.w3.org/2000/svg">
<path d="M9.29744 24.8C7.59291 24.8 6.21379 26.195 6.21379 27.9C6.21379 29.605 7.59291 31 9.29744 31C11.002 31 12.3966 29.605 12.3966 27.9C12.3966 26.195 11.002 24.8 9.29744 24.8ZM0 1.55C0 2.4025 0.697308 3.1 1.54957 3.1H3.09915L8.67761 14.8645L6.58569 18.6465C5.4545 20.7235 6.94209 23.25 9.29744 23.25H26.3427C27.195 23.25 27.8923 22.5525 27.8923 21.7C27.8923 20.8475 27.195 20.15 26.3427 20.15H9.29744L11.002 17.05H22.5463C23.7085 17.05 24.7312 16.4145 25.258 15.4535L30.8055 5.394C30.9361 5.15906 31.0031 4.89408 30.9999 4.62529C30.9967 4.35649 30.9233 4.0932 30.7871 3.86146C30.651 3.62972 30.4566 3.43756 30.2234 3.30401C29.9902 3.17046 29.7261 3.10013 29.4574 3.1H6.5237L5.48549 0.883502C5.36095 0.618926 5.16364 0.395314 4.91665 0.238847C4.66967 0.0823786 4.38323 -0.000469434 4.09087 2.00081e-06H1.54957C0.697308 2.00081e-06 0 0.697502 0 1.55ZM24.7932 24.8C23.0886 24.8 21.7095 26.195 21.7095 27.9C21.7095 29.605 23.0886 31 24.7932 31C26.4977 31 27.8923 29.605 27.8923 27.9C27.8923 26.195 26.4977 24.8 24.7932 24.8Z" fill="#684BBD"/>
</svg>
