<svg width="105" height="105" viewBox="0 0 105 105" fill="none" xmlns="http://www.w3.org/2000/svg">
<circle cx="52.5" cy="52.5" r="50.5" fill="white" stroke="#D6C517" stroke-width="4"/>
<path d="M24.0611 30.4999H26.0917L36.3714 65.4216C36.5406 66.1247 37.0377 66.7301 37.8626 67.238C38.6875 67.7458 39.5018 67.9997 40.3056 67.9997H70.764C71.737 67.9997 72.583 67.7555 73.3022 67.2672C74.0214 66.779 74.4867 66.1637 74.6982 65.4216L84.7241 43.3905C85.1471 41.9452 85.0837 40.6854 84.5337 39.6112C83.9838 38.537 83.1166 37.9999 81.9321 37.9999H80.7264C79.9227 37.9999 79.1718 38.2636 78.4738 38.7909C77.7758 39.3182 77.321 39.953 77.1095 40.6952L68.7334 60.4997H42.3362L31.4854 25.6367C31.2738 24.8945 30.8508 24.2695 30.2163 23.7617C29.5817 23.2539 28.8837 23 28.1222 23H24.0611C22.9189 23 21.9565 23.3711 21.1739 24.1133C20.3913 24.8555 20 25.7441 20 26.7793C20 27.8144 20.3913 28.6933 21.1739 29.416C21.9565 30.1386 22.9189 30.4999 24.0611 30.4999ZM44.335 45.4998C45.456 45.4998 46.4184 45.1385 47.2222 44.4159C48.026 43.6932 48.4278 42.8143 48.4278 41.7792C48.4278 40.744 48.026 39.8553 47.2222 39.1132C46.4184 38.371 45.456 37.9999 44.335 37.9999C43.214 37.9999 42.2621 38.371 41.4795 39.1132C40.6969 39.8553 40.3056 40.744 40.3056 41.7792C40.3056 42.8143 40.6969 43.6932 41.4795 44.4159C42.2621 45.1385 43.214 45.4998 44.335 45.4998ZM44.3667 53.0291C44.3667 54.0642 44.758 54.9431 45.5406 55.6658C46.3233 56.3884 47.2751 56.7497 48.3961 56.7497C49.5172 56.7497 50.4796 56.3884 51.2833 55.6658C52.0871 54.9431 52.489 54.0642 52.489 53.0291C52.489 51.9939 52.0871 51.1053 51.2833 50.3631C50.4796 49.6209 49.5172 49.2498 48.3961 49.2498C47.2751 49.2498 46.3233 49.6209 45.5406 50.3631C44.758 51.1053 44.3667 51.9939 44.3667 53.0291ZM52.4572 34.2499C53.5783 34.2499 54.5407 33.8886 55.3444 33.1659C56.1482 32.4433 56.5501 31.5644 56.5501 30.5292C56.5501 29.4941 56.1482 28.6054 55.3444 27.8632C54.5407 27.1211 53.5783 26.75 52.4572 26.75C51.3362 26.75 50.3844 27.1211 49.6018 27.8632C48.8191 28.6054 48.4278 29.4941 48.4278 30.5292C48.4278 31.5644 48.8191 32.4433 49.6018 33.1659C50.3844 33.8886 51.3362 34.2499 52.4572 34.2499ZM52.489 41.7792C52.489 42.8143 52.8803 43.6932 53.6629 44.4159C54.4455 45.1385 55.3973 45.4998 56.5184 45.4998C57.6394 45.4998 58.6018 45.1385 59.4056 44.4159C60.2093 43.6932 60.6112 42.8143 60.6112 41.7792C60.6112 40.744 60.2093 39.8553 59.4056 39.1132C58.6018 38.371 57.6394 37.9999 56.5184 37.9999C55.3973 37.9999 54.4455 38.371 53.6629 39.1132C52.8803 39.8553 52.489 40.744 52.489 41.7792ZM56.5501 53.0291C56.5501 54.0642 56.9414 54.9431 57.724 55.6658C58.5066 56.3884 59.4584 56.7497 60.5795 56.7497C61.7005 56.7497 62.6629 56.3884 63.4667 55.6658C64.2704 54.9431 64.6723 54.0642 64.6723 53.0291C64.6723 51.9939 64.2704 51.1053 63.4667 50.3631C62.6629 49.6209 61.7005 49.2498 60.5795 49.2498C59.4584 49.2498 58.5066 49.6209 57.724 50.3631C56.9414 51.1053 56.5501 51.9939 56.5501 53.0291ZM64.6406 34.2499C65.7616 34.2499 66.724 33.8886 67.5278 33.1659C68.3316 32.4433 68.7334 31.5644 68.7334 30.5292C68.7334 29.4941 68.3316 28.6054 67.5278 27.8632C66.724 27.1211 65.7616 26.75 64.6406 26.75C63.5196 26.75 62.5677 27.1211 61.7851 27.8632C61.0025 28.6054 60.6112 29.4941 60.6112 30.5292C60.6112 31.5644 61.0025 32.4433 61.7851 33.1659C62.5677 33.8886 63.5196 34.2499 64.6406 34.2499ZM64.6723 41.7792C64.6723 42.8143 65.0636 43.6932 65.8462 44.4159C66.6289 45.1385 67.5807 45.4998 68.7017 45.4998C69.8228 45.4998 70.7852 45.1385 71.5889 44.4159C72.3927 43.6932 72.7946 42.8143 72.7946 41.7792C72.7946 40.744 72.3927 39.8553 71.5889 39.1132C70.7852 38.371 69.8228 37.9999 68.7017 37.9999C67.5807 37.9999 66.6289 38.371 65.8462 39.1132C65.0636 39.8553 64.6723 40.744 64.6723 41.7792ZM66.3856 71.7496C64.6935 71.7496 63.2552 72.2965 62.0707 73.3903C60.8862 74.484 60.2939 75.8121 60.2939 77.3746C60.2939 78.9371 60.8862 80.2652 62.0707 81.3589C63.2552 82.4527 64.6935 82.9996 66.3856 82.9996C68.0777 82.9996 69.5161 82.4527 70.7006 81.3589C71.885 80.2652 72.4773 78.9371 72.4773 77.3746C72.4773 75.8121 71.885 74.484 70.7006 73.3903C69.5161 72.2965 68.0777 71.7496 66.3856 71.7496ZM46.1117 71.7496C44.4408 71.7496 43.0024 72.2965 41.7968 73.3903C40.5911 74.484 39.9883 75.8121 39.9883 77.3746C39.9883 78.9371 40.5911 80.2652 41.7968 81.3589C43.0024 82.4527 44.4408 82.9996 46.1117 82.9996C47.7827 82.9996 49.2105 82.4527 50.3949 81.3589C51.5794 80.2652 52.1717 78.9371 52.1717 77.3746C52.1717 75.8121 51.5794 74.484 50.3949 73.3903C49.2105 72.2965 47.7827 71.7496 46.1117 71.7496Z" fill="#684BBD"/>
</svg>
