<svg width="162" height="82" viewBox="0 0 162 82" fill="none" xmlns="http://www.w3.org/2000/svg">
<path d="M5.92 75.56C4.3067 75.56 3.08001 75.18 2.24001 74.42C1.41331 73.673 1 72.627 1 71.28C1 70.373 1.1733 69.433 1.52 68.46C1.88 67.473 2.38 66.513 3.02 65.58C3.6733 64.647 4.4467 63.793 5.34 63.02C6.2467 62.233 7.2533 61.58 8.36 61.06C9.4667 60.54 10.6467 60.207 11.9 60.06C11.98 60.047 12.0667 60.04 12.16 60.04C12.2533 60.04 12.3467 60.04 12.44 60.04C12.7467 60.04 13.0467 60.06 13.34 60.1C13.6467 60.14 13.8733 60.193 14.02 60.26C14.0867 60.18 14.1733 60.02 14.28 59.78C14.3867 59.54 14.4933 59.287 14.6 59.02C14.72 58.74 14.8133 58.5 14.88 58.3C14.96 58.1 15 58 15 58C15.0667 58 15.14 58.053 15.22 58.16C15.3133 58.267 15.36 58.413 15.36 58.6C15.36 58.627 15.3067 58.767 15.2 59.02C15.1067 59.273 14.9867 59.547 14.84 59.84C14.7067 60.12 14.5733 60.313 14.44 60.42C14.5467 60.473 14.6 60.553 14.6 60.66C14.6 60.847 14.4667 61.093 14.2 61.4C13.9333 61.707 13.62 62.02 13.26 62.34C12.9 62.66 12.5533 62.947 12.22 63.2C11.9 63.44 11.68 63.6 11.56 63.68C11.2667 63.88 11.08 63.98 11 63.98C10.9733 63.98 10.96 63.967 10.96 63.94C10.96 63.94 11.0267 63.853 11.16 63.68C11.2933 63.493 11.4667 63.267 11.68 63C11.8933 62.72 12.1133 62.44 12.34 62.16C12.58 61.867 12.8 61.607 13 61.38C12.8933 61.327 12.7267 61.3 12.5 61.3C11.6733 61.3 10.8267 61.447 9.96 61.74C9.1067 62.033 8.2667 62.44 7.44 62.96C6.6267 63.467 5.86 64.053 5.14 64.72C4.42 65.387 3.78671 66.1 3.24001 66.86C2.69331 67.607 2.2667 68.367 1.96 69.14C1.6533 69.913 1.5 70.66 1.5 71.38C1.5 72.393 1.85331 73.107 2.56001 73.52C3.28001 73.933 4.24 74.14 5.44 74.14C6.32 74.14 7.2733 74.047 8.3 73.86C9.3267 73.673 10.3667 73.427 11.42 73.12C12.4733 72.813 13.48 72.48 14.44 72.12C15.4133 71.747 16.28 71.373 17.04 71C17.8133 70.613 18.42 70.26 18.86 69.94C18.9267 69.873 18.9933 69.84 19.06 69.84C19.1133 69.84 19.14 69.867 19.14 69.92C19.14 69.973 19.1133 70.027 19.06 70.08C18.4467 70.68 17.7333 71.267 16.92 71.84C16.12 72.4 15.1733 72.933 14.08 73.44C13 73.947 11.7133 74.413 10.22 74.84C8.58 75.32 7.1467 75.56 5.92 75.56ZM23.42 72.32C23.2733 72.32 23.1133 72.267 22.94 72.16C22.7667 72.04 22.6467 71.913 22.58 71.78C22.58 71.473 22.62 71.053 22.7 70.52C22.78 69.987 22.8667 69.44 22.96 68.88C23.0667 68.307 23.16 67.82 23.24 67.42C23 67.793 22.7267 68.2 22.42 68.64C22.1133 69.08 21.8 69.493 21.48 69.88C21.16 70.253 20.8333 70.567 20.5 70.82C20.18 71.06 19.88 71.18 19.6 71.18C19.32 71.18 19.1 71.087 18.94 70.9C18.78 70.7 18.7 70.473 18.7 70.22C18.7 70.153 18.7133 70.067 18.74 69.96C18.86 69.347 19.0933 68.773 19.44 68.24C19.8 67.693 20.2067 67.213 20.66 66.8C21.1267 66.387 21.5867 66.06 22.04 65.82C22.4933 65.58 22.88 65.46 23.2 65.46C23.44 65.46 23.667 65.513 23.88 65.62C24.107 65.713 24.32 65.873 24.52 66.1C24.56 66.14 24.58 66.187 24.58 66.24C24.58 66.307 24.54 66.373 24.46 66.44C24.367 66.76 24.267 67.147 24.16 67.6C24.067 68.04 23.973 68.5 23.88 68.98C23.8 69.447 23.733 69.88 23.68 70.28C23.627 70.68 23.6 70.987 23.6 71.2C23.6 71.347 23.62 71.42 23.66 71.42C23.767 71.42 23.9 71.307 24.06 71.08C24.233 70.853 24.4 70.593 24.56 70.3C24.72 70.007 24.86 69.747 24.98 69.52C25.113 69.293 25.193 69.18 25.22 69.18C25.26 69.18 25.28 69.233 25.28 69.34C25.28 69.567 25.207 69.847 25.06 70.18C24.913 70.513 24.733 70.847 24.52 71.18C24.32 71.5 24.113 71.773 23.9 72C23.7 72.213 23.54 72.32 23.42 72.32ZM19.76 70.44C19.9467 70.44 20.18 70.333 20.46 70.12C20.7533 69.907 21.0533 69.633 21.36 69.3C21.68 68.967 21.9867 68.613 22.28 68.24C22.5867 67.867 22.8467 67.513 23.06 67.18C23.2867 66.833 23.4467 66.553 23.54 66.34C23.2733 66.34 22.9667 66.44 22.62 66.64C22.2733 66.827 21.92 67.073 21.56 67.38C21.2 67.673 20.8667 68 20.56 68.36C20.2533 68.707 20.0067 69.047 19.82 69.38C19.6333 69.713 19.54 70 19.54 70.24C19.54 70.373 19.6133 70.44 19.76 70.44ZM26.014 65.24C25.854 65.24 25.714 65.213 25.594 65.16C25.514 65.12 25.474 65.053 25.474 64.96C25.474 64.827 25.54 64.66 25.674 64.46C25.82 64.26 25.994 64.08 26.194 63.92C26.407 63.76 26.6 63.68 26.774 63.68C26.867 63.68 26.914 63.713 26.914 63.78C26.914 63.833 26.867 63.9 26.774 63.98C26.627 64.127 26.54 64.3 26.514 64.5C26.487 64.7 26.447 64.873 26.394 65.02C26.354 65.167 26.227 65.24 26.014 65.24ZM23.0937 81.46C22.8537 81.46 22.6737 81.32 22.5537 81.04C22.9004 80.293 23.2537 79.493 23.614 78.64C23.96 77.787 24.294 76.913 24.614 76.02C24.947 75.127 25.227 74.253 25.454 73.4C25.08 73.693 24.7 74.013 24.314 74.36C23.927 74.707 23.5604 75.107 23.2137 75.56C22.7737 76.107 22.4404 76.753 22.2137 77.5C21.9737 78.26 21.8537 78.96 21.8537 79.6C21.8537 80.373 22.0137 80.953 22.3337 81.34C22.3737 81.38 22.3937 81.407 22.3937 81.42C22.3804 81.433 22.3671 81.44 22.3537 81.44C22.3004 81.44 22.2404 81.42 22.1737 81.38C22.0937 81.34 22.0204 81.28 21.9537 81.2C21.6871 80.92 21.4937 80.58 21.3737 80.18C21.2404 79.793 21.1737 79.373 21.1737 78.92C21.1737 78.4 21.2737 77.873 21.4737 77.34C21.6737 76.807 21.9671 76.307 22.3537 75.84C22.9137 75.16 23.4671 74.593 24.014 74.14C24.56 73.7 25.087 73.267 25.594 72.84C25.794 72.053 25.934 71.287 26.014 70.54C26.08 69.953 26.12 69.44 26.134 69C26.16 68.56 26.174 68.173 26.174 67.84C26.174 67.507 26.16 67.22 26.134 66.98C26.107 66.74 26.08 66.52 26.054 66.32C26.054 66.307 26.06 66.3 26.074 66.3C26.14 66.3 26.28 66.38 26.494 66.54C26.707 66.7 26.827 66.907 26.854 67.16C26.894 67.56 26.914 67.987 26.914 68.44C26.914 68.973 26.88 69.533 26.814 70.12C26.76 70.707 26.68 71.307 26.574 71.92C26.88 71.587 27.18 71.213 27.474 70.8C27.78 70.373 28.067 69.88 28.334 69.32C28.414 69.16 28.487 69.08 28.554 69.08C28.607 69.08 28.634 69.127 28.634 69.22C28.634 69.367 28.567 69.58 28.434 69.86C28.314 70.14 28.167 70.427 27.994 70.72C27.82 71.013 27.647 71.267 27.474 71.48C27.327 71.68 27.167 71.867 26.994 72.04C26.82 72.213 26.64 72.387 26.454 72.56C26.28 73.493 26.074 74.407 25.834 75.3C25.594 76.193 25.347 77.013 25.094 77.76C24.854 78.507 24.634 79.133 24.434 79.64C24.247 80.16 24.114 80.5 24.034 80.66C23.874 80.953 23.714 81.16 23.5537 81.28C23.3937 81.4 23.2404 81.46 23.0937 81.46ZM29.915 66.58C29.835 66.58 29.748 66.567 29.655 66.54C29.575 66.5 29.495 66.46 29.415 66.42C29.361 66.38 29.335 66.327 29.335 66.26C29.335 66.14 29.408 65.993 29.555 65.82C29.701 65.633 29.888 65.473 30.115 65.34C30.341 65.207 30.561 65.14 30.775 65.14C30.895 65.14 30.955 65.173 30.955 65.24C30.955 65.293 30.895 65.36 30.775 65.44C30.628 65.547 30.521 65.693 30.455 65.88C30.388 66.067 30.321 66.233 30.255 66.38C30.188 66.513 30.075 66.58 29.915 66.58ZM28.835 72.62C28.581 72.62 28.408 72.54 28.315 72.38C28.221 72.22 28.175 71.973 28.175 71.64C28.175 71.467 28.181 71.28 28.195 71.08C28.208 70.88 28.235 70.653 28.275 70.4C28.395 69.493 28.528 68.773 28.675 68.24C28.821 67.693 29.008 67.42 29.235 67.42C29.421 67.42 29.588 67.527 29.735 67.74C29.881 67.953 29.981 68.107 30.035 68.2C29.941 68.373 29.815 68.653 29.655 69.04C29.508 69.427 29.375 69.833 29.255 70.26C29.135 70.687 29.075 71.06 29.075 71.38C29.075 71.7 29.148 71.86 29.295 71.86C29.415 71.86 29.548 71.793 29.695 71.66C29.855 71.527 30.001 71.38 30.135 71.22C30.281 71.06 30.375 70.947 30.415 70.88C30.868 70.2 31.155 69.68 31.275 69.32C31.408 68.96 31.535 68.78 31.655 68.78C31.708 68.78 31.735 68.82 31.735 68.9C31.735 68.953 31.721 69.013 31.695 69.08C31.681 69.133 31.661 69.207 31.635 69.3C31.555 69.513 31.428 69.807 31.255 70.18C31.081 70.54 30.868 70.907 30.615 71.28C30.375 71.653 30.101 71.973 29.795 72.24C29.501 72.493 29.181 72.62 28.835 72.62ZM33.838 73.42C33.371 73.42 32.991 73.273 32.698 72.98C32.404 72.673 32.178 72.28 32.018 71.8C31.871 71.32 31.771 70.807 31.718 70.26C31.664 69.7 31.638 69.173 31.638 68.68C31.638 68.387 31.644 68.12 31.658 67.88C31.671 67.627 31.684 67.413 31.698 67.24C31.724 66.733 31.771 66.18 31.838 65.58C31.904 64.967 31.984 64.34 32.078 63.7C31.384 63.807 30.751 63.893 30.178 63.96C29.591 64.027 29.104 64.06 28.718 64.06C28.664 64.06 28.584 63.993 28.478 63.86C28.371 63.727 28.291 63.587 28.238 63.44C28.171 63.293 28.164 63.227 28.218 63.24C28.351 63.253 28.478 63.267 28.598 63.28C28.718 63.28 28.844 63.28 28.978 63.28C29.378 63.28 29.824 63.253 30.318 63.2C30.798 63.147 31.418 63.08 32.178 63C32.284 62.333 32.398 61.673 32.518 61.02C32.651 60.367 32.784 59.747 32.918 59.16C32.984 58.893 33.044 58.68 33.098 58.52C33.164 58.36 33.284 58.293 33.458 58.32C33.618 58.347 33.784 58.407 33.958 58.5C34.131 58.593 34.251 58.7 34.318 58.82C34.584 59.073 34.778 59.393 34.898 59.78C35.018 60.153 35.078 60.573 35.078 61.04C35.078 61.533 35.018 62.073 34.898 62.66C35.631 62.553 36.384 62.427 37.158 62.28C37.944 62.12 38.704 61.96 39.438 61.8C40.184 61.627 40.858 61.473 41.458 61.34C41.551 61.313 41.564 61.327 41.498 61.38C41.431 61.42 41.338 61.467 41.218 61.52C41.098 61.573 40.998 61.613 40.918 61.64C40.078 61.933 39.118 62.22 38.038 62.5C36.958 62.78 35.871 63.027 34.778 63.24C34.564 64.133 34.264 65.06 33.878 66.02C33.491 66.967 33.084 67.88 32.658 68.76C32.658 68.893 32.651 69.027 32.638 69.16C32.638 69.28 32.638 69.407 32.638 69.54C32.638 70.193 32.671 70.78 32.738 71.3C32.818 71.807 32.944 72.22 33.118 72.54C33.238 72.767 33.371 72.927 33.518 73.02C33.678 73.1 33.831 73.14 33.978 73.14C34.124 73.14 34.264 73.113 34.398 73.06C34.531 73.007 34.631 72.967 34.698 72.94C34.844 72.873 34.944 72.847 34.998 72.86C35.051 72.873 35.044 72.913 34.978 72.98C34.938 73.033 34.818 73.12 34.618 73.24C34.418 73.36 34.158 73.42 33.838 73.42ZM33.458 62.86L33.738 62.82L34.438 62.74C34.504 62.433 34.551 62.14 34.578 61.86C34.618 61.58 34.638 61.313 34.638 61.06C34.638 60.367 34.511 59.813 34.258 59.4C34.111 59.933 33.971 60.493 33.838 61.08C33.704 61.667 33.578 62.26 33.458 62.86ZM32.718 67.72C33.038 66.987 33.338 66.247 33.618 65.5C33.898 64.753 34.124 64.033 34.298 63.34C34.124 63.367 33.958 63.393 33.798 63.42C33.638 63.447 33.478 63.473 33.318 63.5C33.184 64.22 33.064 64.94 32.958 65.66C32.864 66.367 32.784 67.053 32.718 67.72ZM39.904 72.32C39.758 72.32 39.598 72.267 39.424 72.16C39.251 72.04 39.131 71.913 39.064 71.78C39.064 71.473 39.104 71.053 39.184 70.52C39.264 69.987 39.351 69.44 39.444 68.88C39.551 68.307 39.644 67.82 39.724 67.42C39.484 67.793 39.211 68.2 38.904 68.64C38.598 69.08 38.284 69.493 37.964 69.88C37.644 70.253 37.318 70.567 36.984 70.82C36.664 71.06 36.364 71.18 36.084 71.18C35.804 71.18 35.584 71.087 35.424 70.9C35.264 70.7 35.184 70.473 35.184 70.22C35.184 70.153 35.198 70.067 35.224 69.96C35.344 69.347 35.578 68.773 35.924 68.24C36.284 67.693 36.691 67.213 37.144 66.8C37.611 66.387 38.071 66.06 38.524 65.82C38.978 65.58 39.364 65.46 39.684 65.46C39.924 65.46 40.151 65.513 40.364 65.62C40.591 65.713 40.804 65.873 41.004 66.1C41.044 66.14 41.064 66.187 41.064 66.24C41.064 66.307 41.024 66.373 40.944 66.44C40.851 66.76 40.751 67.147 40.644 67.6C40.551 68.04 40.458 68.5 40.364 68.98C40.284 69.447 40.218 69.88 40.164 70.28C40.111 70.68 40.084 70.987 40.084 71.2C40.084 71.347 40.104 71.42 40.144 71.42C40.251 71.42 40.384 71.307 40.544 71.08C40.718 70.853 40.884 70.593 41.044 70.3C41.204 70.007 41.344 69.747 41.464 69.52C41.598 69.293 41.678 69.18 41.704 69.18C41.744 69.18 41.764 69.233 41.764 69.34C41.764 69.567 41.691 69.847 41.544 70.18C41.398 70.513 41.218 70.847 41.004 71.18C40.804 71.5 40.598 71.773 40.384 72C40.184 72.213 40.024 72.32 39.904 72.32ZM36.244 70.44C36.431 70.44 36.664 70.333 36.944 70.12C37.238 69.907 37.538 69.633 37.844 69.3C38.164 68.967 38.471 68.613 38.764 68.24C39.071 67.867 39.331 67.513 39.544 67.18C39.771 66.833 39.931 66.553 40.024 66.34C39.758 66.34 39.451 66.44 39.104 66.64C38.758 66.827 38.404 67.073 38.044 67.38C37.684 67.673 37.351 68 37.044 68.36C36.738 68.707 36.491 69.047 36.304 69.38C36.118 69.713 36.024 70 36.024 70.24C36.024 70.373 36.098 70.44 36.244 70.44ZM43.244 72.16C43.044 72.16 42.817 72.133 42.564 72.08C42.324 72.013 42.111 71.933 41.924 71.84C41.751 71.733 41.664 71.633 41.664 71.54C41.664 71.327 41.864 71.22 42.264 71.22C42.491 71.22 42.757 71.173 43.064 71.08C43.371 70.987 43.651 70.887 43.904 70.78C44.171 70.66 44.344 70.573 44.424 70.52C44.371 70.44 44.244 70.32 44.044 70.16C43.844 69.987 43.624 69.78 43.384 69.54C43.144 69.3 42.931 69.033 42.744 68.74C42.571 68.433 42.484 68.1 42.484 67.74C42.484 67.367 42.584 67.02 42.784 66.7C42.984 66.367 43.231 66.067 43.524 65.8C43.831 65.52 44.137 65.28 44.444 65.08C44.764 64.867 45.037 64.693 45.264 64.56C45.357 64.507 45.457 64.48 45.564 64.48C45.777 64.48 45.977 64.553 46.164 64.7C46.364 64.847 46.464 64.987 46.464 65.12C46.464 65.133 46.451 65.167 46.424 65.22C46.317 65.34 46.197 65.527 46.064 65.78C45.944 66.033 45.837 66.3 45.744 66.58C45.651 66.847 45.604 67.093 45.604 67.32C45.604 67.573 45.551 67.7 45.444 67.7C45.391 67.7 45.351 67.647 45.324 67.54C45.297 67.433 45.284 67.333 45.284 67.24C45.284 66.973 45.324 66.687 45.404 66.38C45.497 66.073 45.557 65.853 45.584 65.72C45.424 65.72 45.204 65.827 44.924 66.04C44.657 66.24 44.384 66.493 44.104 66.8C43.824 67.093 43.584 67.393 43.384 67.7C43.197 67.993 43.104 68.233 43.104 68.42C43.104 68.673 43.191 68.907 43.364 69.12C43.537 69.32 43.751 69.507 44.004 69.68C44.271 69.853 44.517 70.04 44.744 70.24C44.877 70.187 45.084 70.093 45.364 69.96C45.644 69.813 45.937 69.667 46.244 69.52C46.564 69.36 46.844 69.227 47.084 69.12C47.337 69.013 47.504 68.96 47.584 68.96C47.611 68.96 47.624 68.967 47.624 68.98C47.624 69.073 47.524 69.193 47.324 69.34C47.124 69.487 46.877 69.64 46.584 69.8C46.291 69.96 45.997 70.113 45.704 70.26C45.424 70.407 45.204 70.52 45.044 70.6C45.084 70.72 45.104 70.84 45.104 70.96C45.104 71.24 45.004 71.467 44.804 71.64C44.617 71.813 44.377 71.947 44.084 72.04C43.804 72.12 43.524 72.16 43.244 72.16ZM55.137 73.86C54.95 73.86 54.777 73.833 54.617 73.78C54.11 73.633 53.703 73.347 53.397 72.92C53.103 72.493 52.89 71.973 52.757 71.36C52.637 70.747 52.577 70.1 52.577 69.42C52.577 69.047 52.59 68.673 52.617 68.3C52.643 67.927 52.683 67.56 52.737 67.2C52.843 66.44 52.997 65.6 53.197 64.68C53.41 63.76 53.65 62.827 53.917 61.88C54.183 60.933 54.457 60.04 54.737 59.2C54.843 58.947 54.937 58.74 55.017 58.58C55.097 58.42 55.223 58.367 55.397 58.42C55.53 58.46 55.663 58.527 55.797 58.62C55.943 58.7 56.057 58.793 56.137 58.9C56.497 59.313 56.677 59.893 56.677 60.64C56.677 61.32 56.543 62.087 56.277 62.94C56.01 63.78 55.657 64.62 55.217 65.46C54.79 66.3 54.31 67.073 53.777 67.78C53.657 68.553 53.597 69.287 53.597 69.98C53.597 70.527 53.637 71.033 53.717 71.5C53.81 71.967 53.95 72.373 54.137 72.72C54.297 73.013 54.47 73.213 54.657 73.32C54.857 73.427 55.043 73.48 55.217 73.48C55.403 73.48 55.57 73.447 55.717 73.38C55.877 73.313 56.003 73.26 56.097 73.22C56.203 73.153 56.297 73.12 56.377 73.12C56.483 73.12 56.497 73.173 56.417 73.28C56.363 73.347 56.223 73.46 55.997 73.62C55.77 73.78 55.483 73.86 55.137 73.86ZM53.917 66.92C54.343 66.253 54.73 65.553 55.077 64.82C55.437 64.073 55.723 63.347 55.937 62.64C56.163 61.92 56.277 61.28 56.277 60.72C56.277 60.507 56.257 60.307 56.217 60.12C56.19 59.933 56.137 59.767 56.057 59.62C55.603 60.753 55.183 61.96 54.797 63.24C54.423 64.507 54.13 65.733 53.917 66.92ZM59.121 73.86C58.934 73.86 58.761 73.833 58.601 73.78C58.094 73.633 57.688 73.347 57.381 72.92C57.088 72.493 56.874 71.973 56.741 71.36C56.621 70.747 56.561 70.1 56.561 69.42C56.561 69.047 56.574 68.673 56.601 68.3C56.628 67.927 56.668 67.56 56.721 67.2C56.828 66.44 56.981 65.6 57.181 64.68C57.394 63.76 57.634 62.827 57.901 61.88C58.168 60.933 58.441 60.04 58.721 59.2C58.828 58.947 58.921 58.74 59.001 58.58C59.081 58.42 59.208 58.367 59.381 58.42C59.514 58.46 59.648 58.527 59.781 58.62C59.928 58.7 60.041 58.793 60.121 58.9C60.481 59.313 60.661 59.893 60.661 60.64C60.661 61.32 60.528 62.087 60.261 62.94C59.994 63.78 59.641 64.62 59.201 65.46C58.774 66.3 58.294 67.073 57.761 67.78C57.641 68.553 57.581 69.287 57.581 69.98C57.581 70.527 57.621 71.033 57.701 71.5C57.794 71.967 57.934 72.373 58.121 72.72C58.281 73.013 58.454 73.213 58.641 73.32C58.841 73.427 59.028 73.48 59.201 73.48C59.388 73.48 59.554 73.447 59.701 73.38C59.861 73.313 59.988 73.26 60.081 73.22C60.188 73.153 60.281 73.12 60.361 73.12C60.468 73.12 60.481 73.173 60.401 73.28C60.348 73.347 60.208 73.46 59.981 73.62C59.754 73.78 59.468 73.86 59.121 73.86ZM57.901 66.92C58.328 66.253 58.714 65.553 59.061 64.82C59.421 64.073 59.708 63.347 59.921 62.64C60.148 61.92 60.261 61.28 60.261 60.72C60.261 60.507 60.241 60.307 60.201 60.12C60.174 59.933 60.121 59.767 60.041 59.62C59.588 60.753 59.168 61.96 58.781 63.24C58.408 64.507 58.114 65.733 57.901 66.92ZM61.876 72.8C61.423 72.8 61.069 72.653 60.816 72.36C60.576 72.067 60.409 71.693 60.316 71.24C60.236 70.773 60.196 70.307 60.196 69.84C60.196 69.52 60.209 69.22 60.236 68.94C60.263 68.647 60.289 68.393 60.316 68.18C60.383 67.633 60.469 67.107 60.576 66.6C60.683 66.093 60.783 65.66 60.876 65.3C60.983 64.94 61.049 64.707 61.076 64.6C61.129 64.413 61.229 64.32 61.376 64.32C61.523 64.32 61.689 64.42 61.876 64.62C62.063 64.807 62.196 64.96 62.276 65.08C62.583 65.173 62.883 65.287 63.176 65.42C63.469 65.54 63.709 65.673 63.896 65.82C64.096 65.967 64.196 66.127 64.196 66.3C64.196 66.633 64.056 66.967 63.776 67.3C63.496 67.633 63.143 67.94 62.716 68.22C62.289 68.5 61.856 68.74 61.416 68.94C61.376 69.26 61.356 69.58 61.356 69.9C61.356 70.433 61.423 70.9 61.556 71.3C61.689 71.7 61.916 71.9 62.236 71.9C62.516 71.9 62.783 71.8 63.036 71.6C63.303 71.4 63.549 71.147 63.776 70.84C64.003 70.533 64.203 70.227 64.376 69.92C64.563 69.6 64.703 69.333 64.796 69.12C64.823 69.04 64.883 69 64.976 69C65.029 69 65.056 69.06 65.056 69.18C65.056 69.287 64.976 69.513 64.816 69.86C64.656 70.18 64.489 70.487 64.316 70.78C64.156 71.06 63.996 71.307 63.836 71.52C63.609 71.813 63.329 72.1 62.996 72.38C62.676 72.66 62.303 72.8 61.876 72.8ZM61.476 68.38C61.943 68.127 62.356 67.827 62.716 67.48C63.089 67.12 63.276 66.733 63.276 66.32C63.276 66.173 63.163 66.027 62.936 65.88C62.723 65.72 62.469 65.587 62.176 65.48C62.016 65.907 61.876 66.36 61.756 66.84C61.649 67.32 61.556 67.833 61.476 68.38ZM66.115 74.36C65.981 74.36 65.795 74.253 65.555 74.04C65.328 73.84 65.168 73.573 65.075 73.24C65.021 73.013 64.981 72.707 64.955 72.32C64.928 71.933 64.915 71.5 64.915 71.02C64.915 70.22 64.928 69.36 64.955 68.44C64.995 67.52 65.015 66.693 65.015 65.96C65.015 65.72 65.008 65.493 64.995 65.28C64.995 65.067 64.988 64.88 64.975 64.72C64.948 64.693 64.868 64.673 64.735 64.66C64.615 64.633 64.495 64.613 64.375 64.6C64.268 64.573 64.215 64.56 64.215 64.56C64.215 64.533 64.315 64.473 64.515 64.38C64.728 64.273 65.028 64.22 65.415 64.22C65.815 64.22 66.075 64.307 66.195 64.48C66.328 64.64 66.395 64.78 66.395 64.9C66.395 64.927 66.395 64.96 66.395 65C66.395 65.04 66.388 65.073 66.375 65.1C66.228 65.807 66.088 66.64 65.955 67.6C65.821 68.547 65.755 69.547 65.755 70.6C65.755 70.853 65.755 71.08 65.755 71.28C65.768 71.467 65.775 71.633 65.775 71.78V71.96C65.855 71.213 65.995 70.507 66.195 69.84C66.395 69.16 66.595 68.42 66.795 67.62C66.955 66.927 67.088 66.393 67.195 66.02C67.315 65.633 67.435 65.367 67.555 65.22C67.688 65.06 67.841 64.98 68.015 64.98C68.255 64.98 68.421 65.08 68.515 65.28C68.608 65.48 68.668 65.753 68.695 66.1C68.721 66.447 68.748 66.847 68.775 67.3C68.801 67.74 68.868 68.213 68.975 68.72C69.135 69.48 69.321 70.033 69.535 70.38C69.748 70.727 69.928 70.9 70.075 70.9C70.248 70.9 70.421 70.793 70.595 70.58C70.768 70.353 70.935 70.093 71.095 69.8C71.255 69.507 71.395 69.253 71.515 69.04C71.648 68.813 71.755 68.7 71.835 68.7C71.875 68.7 71.895 68.733 71.895 68.8C71.895 68.853 71.875 68.94 71.835 69.06C71.501 69.807 71.221 70.387 70.995 70.8C70.768 71.2 70.455 71.4 70.055 71.4C69.748 71.4 69.441 71.267 69.135 71C68.975 70.867 68.815 70.653 68.655 70.36C68.508 70.053 68.368 69.72 68.235 69.36C68.101 69 67.975 68.66 67.855 68.34C67.748 68.007 67.655 67.733 67.575 67.52C67.495 67.307 67.441 67.2 67.415 67.2C67.388 67.2 67.341 67.227 67.275 67.28C67.221 67.333 67.181 67.427 67.155 67.56C66.928 68.387 66.741 69.207 66.595 70.02C66.461 70.82 66.361 71.547 66.295 72.2C66.228 72.84 66.195 73.333 66.195 73.68C66.195 73.853 66.201 73.973 66.215 74.04C66.241 74.12 66.255 74.18 66.255 74.22C66.255 74.313 66.208 74.36 66.115 74.36ZM75.783 72.32C75.637 72.32 75.477 72.267 75.303 72.16C75.13 72.04 75.01 71.913 74.943 71.78C74.943 71.473 74.983 71.053 75.063 70.52C75.143 69.987 75.23 69.44 75.323 68.88C75.43 68.307 75.523 67.82 75.603 67.42C75.363 67.793 75.09 68.2 74.783 68.64C74.477 69.08 74.163 69.493 73.843 69.88C73.523 70.253 73.197 70.567 72.863 70.82C72.543 71.06 72.243 71.18 71.963 71.18C71.683 71.18 71.463 71.087 71.303 70.9C71.143 70.7 71.063 70.473 71.063 70.22C71.063 70.153 71.077 70.067 71.103 69.96C71.223 69.347 71.457 68.773 71.803 68.24C72.163 67.693 72.57 67.213 73.023 66.8C73.49 66.387 73.95 66.06 74.403 65.82C74.857 65.58 75.243 65.46 75.563 65.46C75.803 65.46 76.03 65.513 76.243 65.62C76.47 65.713 76.683 65.873 76.883 66.1C76.923 66.14 76.943 66.187 76.943 66.24C76.943 66.307 76.903 66.373 76.823 66.44C76.73 66.76 76.63 67.147 76.523 67.6C76.43 68.04 76.337 68.5 76.243 68.98C76.163 69.447 76.097 69.88 76.043 70.28C75.99 70.68 75.963 70.987 75.963 71.2C75.963 71.347 75.983 71.42 76.023 71.42C76.13 71.42 76.263 71.307 76.423 71.08C76.597 70.853 76.763 70.593 76.923 70.3C77.083 70.007 77.223 69.747 77.343 69.52C77.477 69.293 77.557 69.18 77.583 69.18C77.623 69.18 77.643 69.233 77.643 69.34C77.643 69.567 77.57 69.847 77.423 70.18C77.277 70.513 77.097 70.847 76.883 71.18C76.683 71.5 76.477 71.773 76.263 72C76.063 72.213 75.903 72.32 75.783 72.32ZM72.123 70.44C72.31 70.44 72.543 70.333 72.823 70.12C73.117 69.907 73.417 69.633 73.723 69.3C74.043 68.967 74.35 68.613 74.643 68.24C74.95 67.867 75.21 67.513 75.423 67.18C75.65 66.833 75.81 66.553 75.903 66.34C75.637 66.34 75.33 66.44 74.983 66.64C74.637 66.827 74.283 67.073 73.923 67.38C73.563 67.673 73.23 68 72.923 68.36C72.617 68.707 72.37 69.047 72.183 69.38C71.997 69.713 71.903 70 71.903 70.24C71.903 70.373 71.977 70.44 72.123 70.44ZM79.123 72.16C78.923 72.16 78.696 72.133 78.443 72.08C78.203 72.013 77.99 71.933 77.803 71.84C77.63 71.733 77.543 71.633 77.543 71.54C77.543 71.327 77.743 71.22 78.143 71.22C78.37 71.22 78.636 71.173 78.943 71.08C79.25 70.987 79.53 70.887 79.783 70.78C80.05 70.66 80.223 70.573 80.303 70.52C80.25 70.44 80.123 70.32 79.923 70.16C79.723 69.987 79.503 69.78 79.263 69.54C79.023 69.3 78.81 69.033 78.623 68.74C78.45 68.433 78.363 68.1 78.363 67.74C78.363 67.367 78.463 67.02 78.663 66.7C78.863 66.367 79.11 66.067 79.403 65.8C79.71 65.52 80.016 65.28 80.323 65.08C80.643 64.867 80.916 64.693 81.143 64.56C81.236 64.507 81.336 64.48 81.443 64.48C81.656 64.48 81.856 64.553 82.043 64.7C82.243 64.847 82.343 64.987 82.343 65.12C82.343 65.133 82.33 65.167 82.303 65.22C82.196 65.34 82.076 65.527 81.943 65.78C81.823 66.033 81.716 66.3 81.623 66.58C81.53 66.847 81.483 67.093 81.483 67.32C81.483 67.573 81.43 67.7 81.323 67.7C81.27 67.7 81.23 67.647 81.203 67.54C81.176 67.433 81.163 67.333 81.163 67.24C81.163 66.973 81.203 66.687 81.283 66.38C81.376 66.073 81.436 65.853 81.463 65.72C81.303 65.72 81.083 65.827 80.803 66.04C80.536 66.24 80.263 66.493 79.983 66.8C79.703 67.093 79.463 67.393 79.263 67.7C79.076 67.993 78.983 68.233 78.983 68.42C78.983 68.673 79.07 68.907 79.243 69.12C79.416 69.32 79.63 69.507 79.883 69.68C80.15 69.853 80.396 70.04 80.623 70.24C80.756 70.187 80.963 70.093 81.243 69.96C81.523 69.813 81.816 69.667 82.123 69.52C82.443 69.36 82.723 69.227 82.963 69.12C83.216 69.013 83.383 68.96 83.463 68.96C83.49 68.96 83.503 68.967 83.503 68.98C83.503 69.073 83.403 69.193 83.203 69.34C83.003 69.487 82.756 69.64 82.463 69.8C82.17 69.96 81.876 70.113 81.583 70.26C81.303 70.407 81.083 70.52 80.923 70.6C80.963 70.72 80.983 70.84 80.983 70.96C80.983 71.24 80.883 71.467 80.683 71.64C80.496 71.813 80.256 71.947 79.963 72.04C79.683 72.12 79.403 72.16 79.123 72.16ZM96.135 75.06C95.669 75.06 95.255 74.773 94.895 74.2C94.469 73.533 94.129 72.747 93.875 71.84C93.622 70.933 93.429 69.953 93.295 68.9C93.069 69.26 92.802 69.64 92.495 70.04C92.189 70.44 91.849 70.82 91.475 71.18C91.102 71.527 90.715 71.813 90.315 72.04C89.915 72.253 89.509 72.36 89.095 72.36C88.709 72.36 88.402 72.293 88.175 72.16C87.962 72.027 87.802 71.873 87.695 71.7C87.602 71.513 87.542 71.34 87.515 71.18C87.502 71.02 87.495 70.907 87.495 70.84C87.495 70.467 87.629 70.06 87.895 69.62C88.175 69.18 88.562 68.767 89.055 68.38C89.562 67.98 90.155 67.653 90.835 67.4C91.529 67.147 92.282 67.02 93.095 67.02H93.115C93.089 66.527 93.069 66.027 93.055 65.52C93.042 65.013 93.035 64.5 93.035 63.98C93.035 63.273 93.055 62.573 93.095 61.88C93.135 61.187 93.202 60.56 93.295 60C93.402 59.427 93.542 58.98 93.715 58.66C93.795 58.527 93.915 58.46 94.075 58.46C94.422 58.46 94.735 58.593 95.015 58.86C95.295 59.113 95.522 59.42 95.695 59.78C95.869 60.14 95.955 60.487 95.955 60.82C95.955 61.793 95.782 62.8 95.435 63.84C95.089 64.88 94.682 65.973 94.215 67.12V67.18L94.495 67.28C94.762 67.413 94.982 67.58 95.155 67.78C95.342 67.967 95.435 68.133 95.435 68.28C95.435 68.333 95.415 68.36 95.375 68.36C95.335 68.36 95.295 68.327 95.255 68.26C94.922 67.967 94.589 67.78 94.255 67.7C94.362 68.82 94.535 69.853 94.775 70.8C95.015 71.733 95.329 72.547 95.715 73.24C95.942 73.653 96.129 73.933 96.275 74.08C96.422 74.24 96.549 74.32 96.655 74.32C96.762 74.32 96.855 74.253 96.935 74.12C97.029 74 97.102 73.94 97.155 73.94C97.195 73.94 97.215 73.98 97.215 74.06V74.14C97.189 74.207 97.135 74.313 97.055 74.46C96.975 74.607 96.862 74.74 96.715 74.86C96.569 74.993 96.375 75.06 96.135 75.06ZM94.155 66.4C94.435 65.68 94.662 65.033 94.835 64.46C95.009 63.887 95.162 63.267 95.295 62.6C95.335 62.387 95.369 62.167 95.395 61.94C95.422 61.7 95.435 61.473 95.435 61.26C95.435 60.873 95.395 60.533 95.315 60.24C95.249 59.947 95.135 59.773 94.975 59.72C94.735 59.92 94.549 60.253 94.415 60.72C94.295 61.173 94.209 61.7 94.155 62.3C94.115 62.887 94.095 63.48 94.095 64.08C94.095 64.88 94.115 65.653 94.155 66.4ZM88.875 71.88C89.209 71.88 89.575 71.773 89.975 71.56C90.389 71.333 90.795 71.047 91.195 70.7C91.609 70.353 91.989 69.98 92.335 69.58C92.695 69.167 92.995 68.773 93.235 68.4L93.155 67.56C92.809 67.573 92.415 67.673 91.975 67.86C91.549 68.047 91.109 68.28 90.655 68.56C90.215 68.84 89.809 69.147 89.435 69.48C89.062 69.8 88.755 70.12 88.515 70.44C88.289 70.747 88.175 71.027 88.175 71.28C88.175 71.52 88.302 71.707 88.555 71.84C88.609 71.853 88.662 71.867 88.715 71.88C88.769 71.88 88.822 71.88 88.875 71.88ZM99.142 72.8C98.688 72.8 98.335 72.653 98.082 72.36C97.842 72.067 97.675 71.693 97.582 71.24C97.502 70.773 97.462 70.307 97.462 69.84C97.462 69.52 97.475 69.22 97.502 68.94C97.528 68.647 97.555 68.393 97.582 68.18C97.648 67.633 97.735 67.107 97.842 66.6C97.948 66.093 98.048 65.66 98.142 65.3C98.248 64.94 98.315 64.707 98.342 64.6C98.395 64.413 98.495 64.32 98.642 64.32C98.788 64.32 98.955 64.42 99.142 64.62C99.328 64.807 99.462 64.96 99.542 65.08C99.848 65.173 100.148 65.287 100.442 65.42C100.735 65.54 100.975 65.673 101.162 65.82C101.362 65.967 101.462 66.127 101.462 66.3C101.462 66.633 101.322 66.967 101.042 67.3C100.762 67.633 100.408 67.94 99.982 68.22C99.555 68.5 99.122 68.74 98.682 68.94C98.642 69.26 98.622 69.58 98.622 69.9C98.622 70.433 98.688 70.9 98.822 71.3C98.955 71.7 99.182 71.9 99.502 71.9C99.782 71.9 100.048 71.8 100.302 71.6C100.568 71.4 100.815 71.147 101.042 70.84C101.268 70.533 101.468 70.227 101.642 69.92C101.828 69.6 101.968 69.333 102.062 69.12C102.088 69.04 102.148 69 102.242 69C102.295 69 102.322 69.06 102.322 69.18C102.322 69.287 102.242 69.513 102.082 69.86C101.922 70.18 101.755 70.487 101.582 70.78C101.422 71.06 101.262 71.307 101.102 71.52C100.875 71.813 100.595 72.1 100.262 72.38C99.942 72.66 99.568 72.8 99.142 72.8ZM98.742 68.38C99.208 68.127 99.622 67.827 99.982 67.48C100.355 67.12 100.542 66.733 100.542 66.32C100.542 66.173 100.428 66.027 100.202 65.88C99.988 65.72 99.735 65.587 99.442 65.48C99.282 65.907 99.142 66.36 99.022 66.84C98.915 67.32 98.822 67.833 98.742 68.38ZM109.227 81.62C108.694 81.62 108.254 81.453 107.907 81.12C107.561 80.8 107.287 80.367 107.087 79.82C106.901 79.273 106.767 78.653 106.687 77.96C106.621 77.267 106.587 76.56 106.587 75.84C106.587 74.867 106.634 73.947 106.727 73.08C106.821 72.213 106.901 71.56 106.967 71.12C106.994 70.933 107.034 70.68 107.087 70.36C107.154 70.04 107.234 69.693 107.327 69.32C107.261 69.32 107.187 69.32 107.107 69.32C107.027 69.307 106.954 69.3 106.887 69.3H106.847L106.107 69.7C106.027 69.727 105.981 69.74 105.967 69.74C105.914 69.74 105.887 69.707 105.887 69.64C105.887 69.52 105.981 69.333 106.167 69.08C106.367 68.813 106.594 68.627 106.847 68.52L107.567 68.22C107.727 67.567 107.894 66.873 108.067 66.14C108.254 65.407 108.434 64.693 108.607 64C108.781 63.293 108.941 62.653 109.087 62.08C109.247 61.493 109.381 61.02 109.487 60.66C109.594 60.287 109.661 60.073 109.687 60.02C109.727 59.967 109.774 59.94 109.827 59.94C109.934 59.94 110.047 60 110.167 60.12C110.301 60.227 110.414 60.347 110.507 60.48C110.614 60.613 110.674 60.72 110.687 60.8C110.727 60.92 110.747 61.06 110.747 61.22C110.747 61.367 110.721 61.58 110.667 61.86C110.627 62.14 110.527 62.54 110.367 63.06C110.114 63.913 109.841 64.713 109.547 65.46C109.267 66.193 109.014 66.973 108.787 67.8C109.414 67.587 110.067 67.387 110.747 67.2C111.441 67.013 112.094 66.86 112.707 66.74C113.321 66.607 113.807 66.54 114.167 66.54C114.247 66.54 114.321 66.547 114.387 66.56C114.454 66.56 114.487 66.58 114.487 66.62C114.487 66.647 114.461 66.68 114.407 66.72C114.354 66.76 114.294 66.787 114.227 66.8C113.534 66.893 112.674 67.093 111.647 67.4C110.634 67.707 109.621 68.073 108.607 68.5C108.581 68.593 108.554 68.687 108.527 68.78C108.514 68.873 108.494 68.967 108.467 69.06C110.107 69.473 111.407 70.213 112.367 71.28C113.341 72.347 113.827 73.673 113.827 75.26C113.827 75.7 113.747 76.2 113.587 76.76C113.427 77.32 113.201 77.88 112.907 78.44C112.627 79.013 112.294 79.54 111.907 80.02C111.521 80.5 111.101 80.887 110.647 81.18C110.194 81.473 109.721 81.62 109.227 81.62ZM109.847 81.02C110.194 81.02 110.514 80.873 110.807 80.58C111.114 80.3 111.387 79.94 111.627 79.5C111.881 79.06 112.094 78.613 112.267 78.16C112.441 77.72 112.561 77.34 112.627 77.02C112.787 76.273 112.867 75.58 112.867 74.94C112.867 73.54 112.494 72.353 111.747 71.38C111.014 70.393 109.894 69.753 108.387 69.46C108.361 69.62 108.334 69.78 108.307 69.94C108.281 70.1 108.254 70.267 108.227 70.44C108.107 71.213 108.007 72.053 107.927 72.96C107.861 73.853 107.827 74.733 107.827 75.6C107.827 76.6 107.894 77.507 108.027 78.32C108.174 79.147 108.394 79.8 108.687 80.28C108.994 80.773 109.381 81.02 109.847 81.02ZM115.06 72.8C114.606 72.8 114.253 72.653 114 72.36C113.76 72.067 113.593 71.693 113.5 71.24C113.42 70.773 113.38 70.307 113.38 69.84C113.38 69.52 113.393 69.22 113.42 68.94C113.446 68.647 113.473 68.393 113.5 68.18C113.566 67.633 113.653 67.107 113.76 66.6C113.866 66.093 113.966 65.66 114.06 65.3C114.166 64.94 114.233 64.707 114.26 64.6C114.313 64.413 114.413 64.32 114.56 64.32C114.706 64.32 114.873 64.42 115.06 64.62C115.246 64.807 115.38 64.96 115.46 65.08C115.766 65.173 116.066 65.287 116.36 65.42C116.653 65.54 116.893 65.673 117.08 65.82C117.28 65.967 117.38 66.127 117.38 66.3C117.38 66.633 117.24 66.967 116.96 67.3C116.68 67.633 116.326 67.94 115.9 68.22C115.473 68.5 115.04 68.74 114.6 68.94C114.56 69.26 114.54 69.58 114.54 69.9C114.54 70.433 114.606 70.9 114.74 71.3C114.873 71.7 115.1 71.9 115.42 71.9C115.7 71.9 115.966 71.8 116.22 71.6C116.486 71.4 116.733 71.147 116.96 70.84C117.186 70.533 117.386 70.227 117.56 69.92C117.746 69.6 117.886 69.333 117.98 69.12C118.006 69.04 118.066 69 118.16 69C118.213 69 118.24 69.06 118.24 69.18C118.24 69.287 118.16 69.513 118 69.86C117.84 70.18 117.673 70.487 117.5 70.78C117.34 71.06 117.18 71.307 117.02 71.52C116.793 71.813 116.513 72.1 116.18 72.38C115.86 72.66 115.486 72.8 115.06 72.8ZM114.66 68.38C115.126 68.127 115.54 67.827 115.9 67.48C116.273 67.12 116.46 66.733 116.46 66.32C116.46 66.173 116.346 66.027 116.12 65.88C115.906 65.72 115.653 65.587 115.36 65.48C115.2 65.907 115.06 66.36 114.94 66.84C114.833 67.32 114.74 67.833 114.66 68.38ZM120.605 73.86C120.419 73.86 120.245 73.833 120.085 73.78C119.579 73.633 119.172 73.347 118.865 72.92C118.572 72.493 118.359 71.973 118.225 71.36C118.105 70.747 118.045 70.1 118.045 69.42C118.045 69.047 118.059 68.673 118.085 68.3C118.112 67.927 118.152 67.56 118.205 67.2C118.312 66.44 118.465 65.6 118.665 64.68C118.879 63.76 119.119 62.827 119.385 61.88C119.652 60.933 119.925 60.04 120.205 59.2C120.312 58.947 120.405 58.74 120.485 58.58C120.565 58.42 120.692 58.367 120.865 58.42C120.999 58.46 121.132 58.527 121.265 58.62C121.412 58.7 121.525 58.793 121.605 58.9C121.965 59.313 122.145 59.893 122.145 60.64C122.145 61.32 122.012 62.087 121.745 62.94C121.479 63.78 121.125 64.62 120.685 65.46C120.259 66.3 119.779 67.073 119.245 67.78C119.125 68.553 119.065 69.287 119.065 69.98C119.065 70.527 119.105 71.033 119.185 71.5C119.279 71.967 119.419 72.373 119.605 72.72C119.765 73.013 119.939 73.213 120.125 73.32C120.325 73.427 120.512 73.48 120.685 73.48C120.872 73.48 121.039 73.447 121.185 73.38C121.345 73.313 121.472 73.26 121.565 73.22C121.672 73.153 121.765 73.12 121.845 73.12C121.952 73.12 121.965 73.173 121.885 73.28C121.832 73.347 121.692 73.46 121.465 73.62C121.239 73.78 120.952 73.86 120.605 73.86ZM119.385 66.92C119.812 66.253 120.199 65.553 120.545 64.82C120.905 64.073 121.192 63.347 121.405 62.64C121.632 61.92 121.745 61.28 121.745 60.72C121.745 60.507 121.725 60.307 121.685 60.12C121.659 59.933 121.605 59.767 121.525 59.62C121.072 60.753 120.652 61.96 120.265 63.24C119.892 64.507 119.599 65.733 119.385 66.92ZM123.45 66.58C123.37 66.58 123.283 66.567 123.19 66.54C123.11 66.5 123.03 66.46 122.95 66.42C122.896 66.38 122.87 66.327 122.87 66.26C122.87 66.14 122.943 65.993 123.09 65.82C123.236 65.633 123.423 65.473 123.65 65.34C123.876 65.207 124.096 65.14 124.31 65.14C124.43 65.14 124.49 65.173 124.49 65.24C124.49 65.293 124.43 65.36 124.31 65.44C124.163 65.547 124.056 65.693 123.99 65.88C123.923 66.067 123.856 66.233 123.79 66.38C123.723 66.513 123.61 66.58 123.45 66.58ZM122.37 72.62C122.116 72.62 121.943 72.54 121.85 72.38C121.756 72.22 121.71 71.973 121.71 71.64C121.71 71.467 121.716 71.28 121.73 71.08C121.743 70.88 121.77 70.653 121.81 70.4C121.93 69.493 122.063 68.773 122.21 68.24C122.356 67.693 122.543 67.42 122.77 67.42C122.956 67.42 123.123 67.527 123.27 67.74C123.416 67.953 123.516 68.107 123.57 68.2C123.476 68.373 123.35 68.653 123.19 69.04C123.043 69.427 122.91 69.833 122.79 70.26C122.67 70.687 122.61 71.06 122.61 71.38C122.61 71.7 122.683 71.86 122.83 71.86C122.95 71.86 123.083 71.793 123.23 71.66C123.39 71.527 123.536 71.38 123.67 71.22C123.816 71.06 123.91 70.947 123.95 70.88C124.403 70.2 124.69 69.68 124.81 69.32C124.943 68.96 125.07 68.78 125.19 68.78C125.243 68.78 125.27 68.82 125.27 68.9C125.27 68.953 125.256 69.013 125.23 69.08C125.216 69.133 125.196 69.207 125.17 69.3C125.09 69.513 124.963 69.807 124.79 70.18C124.616 70.54 124.403 70.907 124.15 71.28C123.91 71.653 123.636 71.973 123.33 72.24C123.036 72.493 122.716 72.62 122.37 72.62ZM126.819 73.52C126.046 73.52 125.439 73.313 124.999 72.9C124.572 72.487 124.359 71.98 124.359 71.38C124.359 70.74 124.492 70.1 124.759 69.46C125.026 68.807 125.386 68.187 125.839 67.6C126.292 67.013 126.806 66.493 127.379 66.04C127.952 65.587 128.559 65.227 129.199 64.96C129.839 64.693 130.466 64.56 131.079 64.56C131.452 64.56 131.759 64.627 131.999 64.76C132.239 64.893 132.359 65.027 132.359 65.16C132.359 65.2 132.346 65.233 132.319 65.26C132.266 65.313 132.186 65.453 132.079 65.68C131.986 65.893 131.886 66.14 131.779 66.42C131.686 66.7 131.599 66.987 131.519 67.28C131.452 67.56 131.419 67.8 131.419 68C131.392 68.147 131.326 68.22 131.219 68.22C131.126 68.22 131.012 68.113 130.879 67.9C130.759 67.673 130.699 67.373 130.699 67C130.699 66.76 130.746 66.507 130.839 66.24C130.946 65.973 131.046 65.733 131.139 65.52C131.246 65.293 131.299 65.133 131.299 65.04C131.299 64.987 131.272 64.96 131.219 64.96C131.179 64.96 131.139 64.96 131.099 64.96C130.819 64.96 130.426 65.087 129.919 65.34C129.412 65.58 128.819 66.027 128.139 66.68C127.686 67.12 127.266 67.633 126.879 68.22C126.492 68.807 126.179 69.4 125.939 70C125.712 70.6 125.599 71.153 125.599 71.66C125.599 72.247 125.746 72.627 126.039 72.8C126.346 72.973 126.692 73.06 127.079 73.06C127.746 73.06 128.412 72.933 129.079 72.68C129.759 72.427 130.392 72.08 130.979 71.64C131.579 71.2 132.079 70.7 132.479 70.14C132.492 70.113 132.506 70.1 132.519 70.1C132.532 70.087 132.539 70.08 132.539 70.08C132.566 70.08 132.579 70.107 132.579 70.16C132.579 70.227 132.559 70.32 132.519 70.44C132.492 70.56 132.452 70.653 132.399 70.72C132.132 71.133 131.752 71.56 131.259 72C130.766 72.427 130.152 72.787 129.419 73.08C128.686 73.373 127.819 73.52 126.819 73.52ZM134.758 66.58C134.678 66.58 134.592 66.567 134.498 66.54C134.418 66.5 134.338 66.46 134.258 66.42C134.205 66.38 134.178 66.327 134.178 66.26C134.178 66.14 134.252 65.993 134.398 65.82C134.545 65.633 134.732 65.473 134.958 65.34C135.185 65.207 135.405 65.14 135.618 65.14C135.738 65.14 135.798 65.173 135.798 65.24C135.798 65.293 135.738 65.36 135.618 65.44C135.472 65.547 135.365 65.693 135.298 65.88C135.232 66.067 135.165 66.233 135.098 66.38C135.032 66.513 134.918 66.58 134.758 66.58ZM133.678 72.62C133.425 72.62 133.252 72.54 133.158 72.38C133.065 72.22 133.018 71.973 133.018 71.64C133.018 71.467 133.025 71.28 133.038 71.08C133.052 70.88 133.078 70.653 133.118 70.4C133.238 69.493 133.372 68.773 133.518 68.24C133.665 67.693 133.852 67.42 134.078 67.42C134.265 67.42 134.432 67.527 134.578 67.74C134.725 67.953 134.825 68.107 134.878 68.2C134.785 68.373 134.658 68.653 134.498 69.04C134.352 69.427 134.218 69.833 134.098 70.26C133.978 70.687 133.918 71.06 133.918 71.38C133.918 71.7 133.992 71.86 134.138 71.86C134.258 71.86 134.392 71.793 134.538 71.66C134.698 71.527 134.845 71.38 134.978 71.22C135.125 71.06 135.218 70.947 135.258 70.88C135.712 70.2 135.998 69.68 136.118 69.32C136.252 68.96 136.378 68.78 136.498 68.78C136.552 68.78 136.578 68.82 136.578 68.9C136.578 68.953 136.565 69.013 136.538 69.08C136.525 69.133 136.505 69.207 136.478 69.3C136.398 69.513 136.272 69.807 136.098 70.18C135.925 70.54 135.712 70.907 135.458 71.28C135.218 71.653 134.945 71.973 134.638 72.24C134.345 72.493 134.025 72.62 133.678 72.62ZM143.968 75.06C143.501 75.06 143.088 74.773 142.728 74.2C142.301 73.533 141.961 72.747 141.708 71.84C141.454 70.933 141.261 69.953 141.128 68.9C140.901 69.26 140.634 69.64 140.328 70.04C140.021 70.44 139.681 70.82 139.308 71.18C138.934 71.527 138.548 71.813 138.148 72.04C137.748 72.253 137.341 72.36 136.928 72.36C136.541 72.36 136.234 72.293 136.008 72.16C135.794 72.027 135.634 71.873 135.528 71.7C135.434 71.513 135.374 71.34 135.348 71.18C135.334 71.02 135.328 70.907 135.328 70.84C135.328 70.467 135.461 70.06 135.728 69.62C136.008 69.18 136.394 68.767 136.888 68.38C137.394 67.98 137.988 67.653 138.668 67.4C139.361 67.147 140.114 67.02 140.928 67.02H140.948C140.921 66.527 140.901 66.027 140.888 65.52C140.874 65.013 140.868 64.5 140.868 63.98C140.868 63.273 140.888 62.573 140.928 61.88C140.968 61.187 141.034 60.56 141.128 60C141.234 59.427 141.374 58.98 141.548 58.66C141.628 58.527 141.748 58.46 141.908 58.46C142.254 58.46 142.568 58.593 142.848 58.86C143.128 59.113 143.354 59.42 143.528 59.78C143.701 60.14 143.788 60.487 143.788 60.82C143.788 61.793 143.614 62.8 143.268 63.84C142.921 64.88 142.514 65.973 142.048 67.12V67.18L142.328 67.28C142.594 67.413 142.814 67.58 142.988 67.78C143.174 67.967 143.268 68.133 143.268 68.28C143.268 68.333 143.248 68.36 143.208 68.36C143.168 68.36 143.128 68.327 143.088 68.26C142.754 67.967 142.421 67.78 142.088 67.7C142.194 68.82 142.368 69.853 142.608 70.8C142.848 71.733 143.161 72.547 143.548 73.24C143.774 73.653 143.961 73.933 144.108 74.08C144.254 74.24 144.381 74.32 144.488 74.32C144.594 74.32 144.688 74.253 144.768 74.12C144.861 74 144.934 73.94 144.988 73.94C145.028 73.94 145.048 73.98 145.048 74.06V74.14C145.021 74.207 144.968 74.313 144.888 74.46C144.808 74.607 144.694 74.74 144.548 74.86C144.401 74.993 144.208 75.06 143.968 75.06ZM141.988 66.4C142.268 65.68 142.494 65.033 142.668 64.46C142.841 63.887 142.994 63.267 143.128 62.6C143.168 62.387 143.201 62.167 143.228 61.94C143.254 61.7 143.268 61.473 143.268 61.26C143.268 60.873 143.228 60.533 143.148 60.24C143.081 59.947 142.968 59.773 142.808 59.72C142.568 59.92 142.381 60.253 142.248 60.72C142.128 61.173 142.041 61.7 141.988 62.3C141.948 62.887 141.928 63.48 141.928 64.08C141.928 64.88 141.948 65.653 141.988 66.4ZM136.708 71.88C137.041 71.88 137.408 71.773 137.808 71.56C138.221 71.333 138.628 71.047 139.028 70.7C139.441 70.353 139.821 69.98 140.168 69.58C140.528 69.167 140.828 68.773 141.068 68.4L140.988 67.56C140.641 67.573 140.248 67.673 139.808 67.86C139.381 68.047 138.941 68.28 138.488 68.56C138.048 68.84 137.641 69.147 137.268 69.48C136.894 69.8 136.588 70.12 136.348 70.44C136.121 70.747 136.008 71.027 136.008 71.28C136.008 71.52 136.134 71.707 136.388 71.84C136.441 71.853 136.494 71.867 136.548 71.88C136.601 71.88 136.654 71.88 136.708 71.88ZM148.811 72.32C148.664 72.32 148.504 72.267 148.331 72.16C148.157 72.04 148.037 71.913 147.971 71.78C147.971 71.473 148.011 71.053 148.091 70.52C148.171 69.987 148.257 69.44 148.351 68.88C148.457 68.307 148.551 67.82 148.631 67.42C148.391 67.793 148.117 68.2 147.811 68.64C147.504 69.08 147.191 69.493 146.871 69.88C146.551 70.253 146.224 70.567 145.891 70.82C145.571 71.06 145.271 71.18 144.991 71.18C144.711 71.18 144.491 71.087 144.331 70.9C144.171 70.7 144.091 70.473 144.091 70.22C144.091 70.153 144.104 70.067 144.131 69.96C144.251 69.347 144.484 68.773 144.831 68.24C145.191 67.693 145.597 67.213 146.051 66.8C146.517 66.387 146.977 66.06 147.431 65.82C147.884 65.58 148.271 65.46 148.591 65.46C148.831 65.46 149.057 65.513 149.271 65.62C149.497 65.713 149.711 65.873 149.911 66.1C149.951 66.14 149.971 66.187 149.971 66.24C149.971 66.307 149.931 66.373 149.851 66.44C149.757 66.76 149.657 67.147 149.551 67.6C149.457 68.04 149.364 68.5 149.271 68.98C149.191 69.447 149.124 69.88 149.071 70.28C149.017 70.68 148.991 70.987 148.991 71.2C148.991 71.347 149.011 71.42 149.051 71.42C149.157 71.42 149.291 71.307 149.451 71.08C149.624 70.853 149.791 70.593 149.951 70.3C150.111 70.007 150.251 69.747 150.371 69.52C150.504 69.293 150.584 69.18 150.611 69.18C150.651 69.18 150.671 69.233 150.671 69.34C150.671 69.567 150.597 69.847 150.451 70.18C150.304 70.513 150.124 70.847 149.911 71.18C149.711 71.5 149.504 71.773 149.291 72C149.091 72.213 148.931 72.32 148.811 72.32ZM145.151 70.44C145.337 70.44 145.571 70.333 145.851 70.12C146.144 69.907 146.444 69.633 146.751 69.3C147.071 68.967 147.377 68.613 147.671 68.24C147.977 67.867 148.237 67.513 148.451 67.18C148.677 66.833 148.837 66.553 148.931 66.34C148.664 66.34 148.357 66.44 148.011 66.64C147.664 66.827 147.311 67.073 146.951 67.38C146.591 67.673 146.257 68 145.951 68.36C145.644 68.707 145.397 69.047 145.211 69.38C145.024 69.713 144.931 70 144.931 70.24C144.931 70.373 145.004 70.44 145.151 70.44ZM159.573 75.06C159.106 75.06 158.693 74.773 158.333 74.2C157.906 73.533 157.566 72.747 157.313 71.84C157.06 70.933 156.866 69.953 156.733 68.9C156.506 69.26 156.24 69.64 155.933 70.04C155.626 70.44 155.286 70.82 154.913 71.18C154.54 71.527 154.153 71.813 153.753 72.04C153.353 72.253 152.946 72.36 152.533 72.36C152.146 72.36 151.84 72.293 151.613 72.16C151.4 72.027 151.24 71.873 151.133 71.7C151.04 71.513 150.98 71.34 150.953 71.18C150.94 71.02 150.933 70.907 150.933 70.84C150.933 70.467 151.066 70.06 151.333 69.62C151.613 69.18 152 68.767 152.493 68.38C153 67.98 153.593 67.653 154.273 67.4C154.966 67.147 155.72 67.02 156.533 67.02H156.553C156.526 66.527 156.506 66.027 156.493 65.52C156.48 65.013 156.473 64.5 156.473 63.98C156.473 63.273 156.493 62.573 156.533 61.88C156.573 61.187 156.64 60.56 156.733 60C156.84 59.427 156.98 58.98 157.153 58.66C157.233 58.527 157.353 58.46 157.513 58.46C157.86 58.46 158.173 58.593 158.453 58.86C158.733 59.113 158.96 59.42 159.133 59.78C159.306 60.14 159.393 60.487 159.393 60.82C159.393 61.793 159.22 62.8 158.873 63.84C158.526 64.88 158.12 65.973 157.653 67.12V67.18L157.933 67.28C158.2 67.413 158.42 67.58 158.593 67.78C158.78 67.967 158.873 68.133 158.873 68.28C158.873 68.333 158.853 68.36 158.813 68.36C158.773 68.36 158.733 68.327 158.693 68.26C158.36 67.967 158.026 67.78 157.693 67.7C157.8 68.82 157.973 69.853 158.213 70.8C158.453 71.733 158.766 72.547 159.153 73.24C159.38 73.653 159.566 73.933 159.713 74.08C159.86 74.24 159.986 74.32 160.093 74.32C160.2 74.32 160.293 74.253 160.373 74.12C160.466 74 160.54 73.94 160.593 73.94C160.633 73.94 160.653 73.98 160.653 74.06V74.14C160.626 74.207 160.573 74.313 160.493 74.46C160.413 74.607 160.3 74.74 160.153 74.86C160.006 74.993 159.813 75.06 159.573 75.06ZM157.593 66.4C157.873 65.68 158.1 65.033 158.273 64.46C158.446 63.887 158.6 63.267 158.733 62.6C158.773 62.387 158.806 62.167 158.833 61.94C158.86 61.7 158.873 61.473 158.873 61.26C158.873 60.873 158.833 60.533 158.753 60.24C158.686 59.947 158.573 59.773 158.413 59.72C158.173 59.92 157.986 60.253 157.853 60.72C157.733 61.173 157.646 61.7 157.593 62.3C157.553 62.887 157.533 63.48 157.533 64.08C157.533 64.88 157.553 65.653 157.593 66.4ZM152.313 71.88C152.646 71.88 153.013 71.773 153.413 71.56C153.826 71.333 154.233 71.047 154.633 70.7C155.046 70.353 155.426 69.98 155.773 69.58C156.133 69.167 156.433 68.773 156.673 68.4L156.593 67.56C156.246 67.573 155.853 67.673 155.413 67.86C154.986 68.047 154.546 68.28 154.093 68.56C153.653 68.84 153.246 69.147 152.873 69.48C152.5 69.8 152.193 70.12 151.953 70.44C151.726 70.747 151.613 71.027 151.613 71.28C151.613 71.52 151.74 71.707 151.993 71.84C152.046 71.853 152.1 71.867 152.153 71.88C152.206 71.88 152.26 71.88 152.313 71.88Z" fill="black"/>
<path d="M128.167 11.1111H127.428L127.702 11.7968L133.184 25.5L127.702 39.2032L127.428 39.8889H128.167H133.722H134.061L134.186 39.5746L136.5 33.7907L138.814 39.5746L138.939 39.8889H139.278H144.833H145.572L145.298 39.2032L139.816 25.5L145.298 11.7968L145.572 11.1111H144.833H139.278H138.939L138.814 11.4254L136.5 17.2093L134.186 11.4254L134.061 11.1111H133.722H128.167ZM117.056 1H155.944C157.285 1 158.571 1.5326 159.519 2.4807C160.467 3.4288 161 4.7147 161 6.0556V44.9444C161 46.2853 160.467 47.5712 159.519 48.519C158.571 49.467 157.285 50 155.944 50H117.056C115.715 50 114.429 49.467 113.481 48.519C112.533 47.5712 112 46.2853 112 44.9444V6.0556C112 4.7147 112.533 3.4288 113.481 2.4807C114.429 1.5326 115.715 1 117.056 1Z" fill="#362270" stroke="black"/>
<path d="M17.1667 12.1111H16.6667V12.6111V40.3889V40.8889H17.1667H28.278C29.884 40.8889 31.424 40.2509 32.56 39.1153C33.695 37.9796 34.333 36.4394 34.333 34.8333V30.6667C34.333 28.8911 33.238 27.2823 31.708 26.5C33.238 25.7177 34.333 24.1089 34.333 22.3333V18.1667C34.333 16.5606 33.695 15.0204 32.56 13.8847C31.424 12.7491 29.884 12.1111 28.278 12.1111H17.1667ZM6.0556 2H44.944C46.285 2 47.571 2.5326 48.519 3.4807C49.467 4.4288 50 5.7147 50 7.0556V45.9444C50 47.2853 49.467 48.5712 48.519 49.519C47.571 50.467 46.285 51 44.944 51H6.0556C4.7147 51 3.4288 50.467 2.4807 49.519C1.5326 48.5712 1 47.2853 1 45.9444V7.0556C1 5.7147 1.5326 4.4288 2.4807 3.4807C3.4288 2.5326 4.7147 2 6.0556 2ZM27.778 34.3333H23.222V29.7778H27.778V34.3333ZM27.778 23.2222H23.222V18.6667H27.778V23.2222Z" fill="#362270" stroke="black"/>
<path d="M68.5 1L81 10.375L68.5 19.75L56 10.375L68.5 1ZM93.5 1L106 10.375L93.5 19.75L81 10.375L93.5 1ZM56 29.125L68.5 19.75L81 29.125L68.5 38.5L56 29.125ZM93.5 19.75L106 29.125L93.5 38.5L81 29.125L93.5 19.75ZM68.5 41.625L81 32.25L93.5 41.625L81 51L68.5 41.625Z" fill="#D6C517"/>
</svg>
