<svg width="34" height="38" viewBox="0 0 34 38" fill="none" xmlns="http://www.w3.org/2000/svg">
<path d="M15.0006 0.666656V7.33332H11.6673L18.3339 14L25.0006 7.33332H21.6673V0.666656H15.0006ZM0.000610352 3.99999V7.33332H3.33394L9.33394 19.9833L7.08394 24.0667C6.81728 24.5333 6.66728 25.0833 6.66728 25.6667C6.66728 26.5507 7.01847 27.3986 7.64359 28.0237C8.26871 28.6488 9.11656 29 10.0006 29H30.0006V25.6667H10.7006C10.4839 25.6667 10.2839 25.4833 10.2839 25.25L10.3339 25.05L11.8339 22.3333H24.2506C25.5006 22.3333 26.6006 21.65 27.1673 20.6167L33.6006 8.93332L30.7006 7.33332H30.6839L28.8506 10.6667L24.2506 19H12.5506L12.3339 18.55L8.60061 10.6667L7.01728 7.33332L5.45061 3.99999H0.000610352ZM10.0006 30.6667C9.11656 30.6667 8.26871 31.0178 7.64359 31.643C7.01847 32.2681 6.66728 33.1159 6.66728 34C6.66728 34.884 7.01847 35.7319 7.64359 36.357C8.26871 36.9821 9.11656 37.3333 10.0006 37.3333C10.8847 37.3333 11.7325 36.9821 12.3576 36.357C12.9828 35.7319 13.3339 34.884 13.3339 34C13.3339 33.1159 12.9828 32.2681 12.3576 31.643C11.7325 31.0178 10.8847 30.6667 10.0006 30.6667ZM26.6673 30.6667C25.7832 30.6667 24.9354 31.0178 24.3103 31.643C23.6851 32.2681 23.3339 33.1159 23.3339 34C23.3339 34.884 23.6851 35.7319 24.3103 36.357C24.9354 36.9821 25.7832 37.3333 26.6673 37.3333C27.5513 37.3333 28.3992 36.9821 29.0243 36.357C29.6494 35.7319 30.0006 34.884 30.0006 34C30.0006 33.1159 29.6494 32.2681 29.0243 31.643C28.3992 31.0178 27.5513 30.6667 26.6673 30.6667Z" fill="#D6C517"/>
</svg>
