<svg width="25" height="31" viewBox="0 0 25 31" fill="none" xmlns="http://www.w3.org/2000/svg">
<path d="M17.3077 3.84615H23.0769C24.2308 3.84615 25 4.61538 25 5.76923V7.69231H0V5.76923C0 4.61538 0.961538 3.84615 1.92308 3.84615H7.69231C8.07692 1.73077 10.1923 0 12.5 0C14.8077 0 16.9231 1.73077 17.3077 3.84615ZM9.61538 3.84615H15.3846C15 2.69231 13.6538 1.92308 12.5 1.92308C11.3462 1.92308 10 2.69231 9.61538 3.84615ZM1.92308 9.61538H23.0769L21.3462 29.0385C21.3462 30 20.3846 30.7692 19.4231 30.7692H5.57692C4.61538 30.7692 3.84615 30 3.65385 29.0385L1.92308 9.61538Z" fill="#684BBD"/>
</svg>
