<svg width="64" height="64" viewBox="0 0 64 64" fill="none" xmlns="http://www.w3.org/2000/svg">
<path d="M41.4667 34.6667C43.4667 34.6667 45.2267 33.5734 46.1334 31.92L55.6801 14.6134C55.9048 14.2092 56.0201 13.7533 56.0146 13.2909C56.009 12.8284 55.8828 12.3754 55.6485 11.9767C55.4141 11.578 55.0797 11.2475 54.6783 11.0177C54.277 10.7879 53.8226 10.6669 53.3601 10.6667H13.8934L11.3867 5.33337H2.66675V10.6667H8.00008L17.6001 30.9067L14.0001 37.4134C12.0534 40.9867 14.6134 45.3334 18.6667 45.3334H50.6667V40H18.6667L21.6001 34.6667H41.4667ZM16.4267 16H48.8267L41.4667 29.3334H22.7467L16.4267 16ZM18.6667 48C15.7334 48 13.3601 50.4 13.3601 53.3334C13.3601 56.2667 15.7334 58.6667 18.6667 58.6667C21.6001 58.6667 24.0001 56.2667 24.0001 53.3334C24.0001 50.4 21.6001 48 18.6667 48ZM45.3334 48C42.4001 48 40.0267 50.4 40.0267 53.3334C40.0267 56.2667 42.4001 58.6667 45.3334 58.6667C48.2667 58.6667 50.6667 56.2667 50.6667 53.3334C50.6667 50.4 48.2667 48 45.3334 48Z" fill="#684BBD"/>
</svg>
